<svg version="1.0" xmlns="http://www.w3.org/2000/svg"
 width="310.000000pt" height="310.000000pt" viewBox="0 0 310.000000 310.000000"
 preserveAspectRatio="xMidYMid meet">
<g transform="translate(0.000000,310.000000) scale(0.100000,-0.100000)"
fill="#000000" stroke="none">
<path d="M1235 2690 c-235 -53 -424 -158 -595 -330 -188 -187 -297 -412 -336
-691 -15 -109 -15 -139 -4 -244 29 -278 135 -512 317 -706 164 -174 347 -280
594 -346 l104 -28 640 0 c624 0 641 0 667 20 59 44 75 121 38 182 -38 63 -16
61 -691 65 -602 4 -616 5 -699 27 -334 89 -588 344 -672 674 -29 115 -29 320
0 427 41 147 68 208 140 310 64 90 123 152 203 211 109 80 209 125 375 168 27
7 250 11 645 11 555 0 607 1 639 18 94 47 106 166 24 231 -26 21 -32 21 -668
20 -582 -1 -648 -2 -721 -19z"/>
<path d="M1385 2212 c-107 -36 -129 -176 -38 -238 26 -18 54 -19 438 -22 458
-3 456 -3 502 67 28 42 29 86 3 128 -42 70 -30 68 -480 70 -223 1 -414 -2
-425 -5z"/>
<path d="M2503 2209 c-40 -12 -80 -59 -89 -106 -8 -44 16 -95 59 -127 37 -27
108 -27 145 1 122 89 31 275 -115 232z"/>
<path d="M963 1660 c-81 -49 -83 -163 -4 -219 28 -20 40 -21 429 -21 l399 0
34 23 c58 39 73 131 31 182 -47 57 -34 55 -462 55 -374 0 -397 -1 -427 -20z"/>
<path d="M2118 1664 c-30 -16 -68 -80 -68 -114 0 -39 29 -89 62 -110 68 -41
159 -16 191 53 22 45 21 69 -2 115 -34 66 -118 92 -183 56z"/>
<path d="M1334 1107 c-47 -43 -57 -113 -24 -165 39 -62 46 -63 503 -60 394 3
413 4 439 23 31 23 58 75 58 111 0 34 -24 78 -56 103 -26 21 -36 21 -455 21
l-429 0 -36 -33z"/>
<path d="M2461 1115 c-61 -52 -65 -139 -9 -194 53 -52 128 -53 180 -4 59 56
57 147 -3 197 -43 37 -124 37 -168 1z"/>
</g>
</svg>
